<?xml version="1.0" standalone="no"?>
<!DOCTYPE svg PUBLIC "-//W3C//DTD SVG 20010904//EN"
 "http://www.w3.org/TR/2001/REC-SVG-20010904/DTD/svg10.dtd">
<svg version="1.0" xmlns="http://www.w3.org/2000/svg"
 width="353.000000pt" height="495.000000pt" viewBox="0 0 353.000000 495.000000"
 preserveAspectRatio="xMidYMid meet">

<g transform="translate(0.000000,495.000000) scale(0.100000,-0.100000)"
fill="#000000" stroke="none">
<path d="M0 2475 l0 -2475 1765 0 1765 0 0 2475 0 2475 -1765 0 -1765 0 0
-2475z m3333 2332 c73 -56 67 157 67 -2327 0 -2484 6 -2271 -67 -2327 l-36
-28 -1537 0 -1537 0 -36 28 c-73 56 -67 -157 -67 2327 0 2396 -3 2267 46 2312
57 51 -41 48 1605 45 l1526 -2 36 -28z"/>
<path d="M1638 4440 c-284 -52 -518 -270 -584 -545 -22 -90 -22 -248 0 -338
105 -444 599 -682 1011 -488 205 97 350 273 401 486 22 91 22 249 0 340 -59
246 -251 447 -501 525 -79 24 -249 35 -327 20z m228 -151 c211 -38 402 -221
454 -434 17 -70 14 -201 -5 -276 -20 -75 -62 -158 -109 -214 l-34 -40 -36 42
c-157 182 -450 219 -655 82 -33 -22 -77 -59 -97 -82 l-36 -42 -33 38 c-45 52
-90 140 -110 215 -19 74 -21 208 -4 278 32 133 129 272 242 345 132 85 274
115 423 88z m19 -930 c36 -13 77 -40 113 -74 l57 -53 -57 -27 c-65 -30 -173
-55 -238 -55 -65 0 -173 25 -238 55 l-57 27 57 53 c34 32 78 61 110 74 73 28
179 28 253 0z"/>
<path d="M1690 4091 c-74 -24 -139 -82 -166 -147 -8 -19 -14 -63 -14 -99 0
-218 245 -332 414 -193 75 62 110 202 72 292 -20 47 -73 104 -120 128 -44 22
-145 33 -186 19z m120 -158 c57 -33 66 -104 21 -155 -24 -27 -36 -33 -71 -33
-35 0 -47 6 -71 33 -79 89 20 215 121 155z"/>
<path d="M385 3640 c-3 -5 -1 -10 4 -10 6 0 11 5 11 10 0 6 -2 10 -4 10 -3 0
-8 -4 -11 -10z"/>
<path d="M595 2553 c-54 -14 -73 -78 -36 -124 l19 -24 1182 0 1182 0 19 24
c24 30 24 72 0 102 l-19 24 -1164 1 c-639 1 -1172 0 -1183 -3z"/>
<path d="M562 1937 c-29 -31 -29 -77 1 -105 l23 -22 1175 0 1176 0 21 23 c29
31 29 80 0 107 -22 20 -28 20 -1198 20 l-1177 0 -21 -23z"/>
<path d="M590 1363 c-49 -18 -66 -76 -34 -121 l15 -22 1189 0 1189 0 15 22
c23 32 20 81 -5 104 -20 18 -56 19 -1188 21 -641 1 -1173 -1 -1181 -4z"/>
<path d="M562 750 c-32 -30 -30 -82 4 -109 27 -21 28 -21 1194 -21 1166 0
1167 0 1194 21 34 27 36 79 4 109 -22 20 -28 20 -1198 20 -1170 0 -1176 0
-1198 -20z"/>
</g>
</svg>
