<?xml version="1.0" standalone="no"?>
<!DOCTYPE svg PUBLIC "-//W3C//DTD SVG 20010904//EN"
 "http://www.w3.org/TR/2001/REC-SVG-20010904/DTD/svg10.dtd">
<svg version="1.0" xmlns="http://www.w3.org/2000/svg"
 width="360.000000pt" height="360.000000pt" viewBox="0 0 360.000000 360.000000"
 preserveAspectRatio="xMidYMid meet">

<g transform="translate(0.000000,360.000000) scale(0.100000,-0.100000)"
fill="#000000" stroke="none">
<path d="M602 3524 c-141 -37 -249 -155 -281 -302 -15 -70 -16 -2254 -1 -2333
23 -123 106 -229 220 -283 l65 -31 1195 0 1195 0 65 31 c114 54 197 160 220
283 15 79 14 2263 -1 2333 -32 148 -142 266 -284 303 -52 13 -200 15 -1200 14
-956 0 -1149 -3 -1193 -15z m1477 -617 c179 -53 291 -173 323 -347 27 -145
-58 -322 -188 -388 l-38 -20 31 -6 c43 -10 141 -74 181 -120 183 -209 101
-569 -158 -694 -124 -60 -190 -67 -615 -67 l-380 0 -3 820 c-1 451 0 826 3
833 8 21 769 11 844 -11z"/>
<path d="M1470 2474 l0 -245 263 3 c249 3 265 4 312 26 99 46 137 106 137 217
0 130 -63 213 -181 235 -30 5 -161 10 -292 10 l-239 0 0 -246z"/>
<path d="M1468 1743 l3 -278 282 5 282 5 66 31 c105 50 148 121 149 250 0 119
-53 199 -161 241 -37 14 -90 17 -334 21 l-290 4 3 -279z"/>
<path d="M733 431 c-18 -5 -44 -16 -59 -25 -63 -42 -85 -183 -41 -266 33 -62
74 -82 164 -78 67 3 75 6 108 38 43 42 59 95 52 172 -9 100 -55 151 -147 162
-25 2 -60 1 -77 -3z m86 -62 c41 -15 61 -54 61 -124 0 -71 -21 -114 -60 -122
-89 -17 -133 23 -133 122 1 69 17 103 55 120 41 17 38 17 77 4z"/>
<path d="M1153 431 c-81 -20 -122 -83 -123 -186 0 -121 60 -185 173 -185 92 0
146 39 167 120 24 91 -6 196 -67 232 -35 20 -107 29 -150 19z m86 -62 c42 -15
61 -55 61 -128 0 -52 -4 -65 -27 -91 -45 -50 -120 -43 -150 13 -23 42 -22 137
1 172 27 41 63 52 115 34z"/>
<path d="M1830 430 c-46 -11 -80 -52 -80 -95 0 -43 37 -86 105 -123 39 -21 51
-33 53 -54 6 -48 -40 -55 -144 -23 -18 6 -20 3 -16 -29 4 -31 8 -36 39 -42 18
-3 59 -4 90 -2 72 6 103 37 103 103 0 36 -5 47 -32 70 -18 15 -52 37 -75 48
-53 26 -64 54 -33 79 17 14 31 17 54 12 54 -13 68 -10 77 14 7 19 5 24 -14 31
-39 15 -91 19 -127 11z"/>
<path d="M270 246 l0 -186 84 0 c133 0 186 30 186 107 0 43 -25 83 -51 83 -7
0 0 11 15 25 23 21 27 32 24 67 -5 65 -36 82 -159 86 l-99 4 0 -186z m180 109
c7 -8 10 -25 6 -40 -7 -27 -36 -39 -82 -33 -26 3 -29 7 -32 46 l-3 42 49 0
c32 0 54 -5 62 -15z m14 -167 c15 -42 -14 -68 -76 -68 l-48 0 0 48 c0 27 2 51
4 53 3 3 29 2 58 -1 46 -4 54 -8 62 -32z"/>
<path d="M1430 400 c0 -29 1 -30 50 -30 l50 0 0 -155 0 -155 35 0 35 0 0 155
0 155 53 0 c51 0 52 0 52 30 l0 30 -137 0 -138 0 0 -30z"/>
<path d="M2020 400 c0 -30 1 -30 53 -30 l53 0 -2 -155 -3 -155 40 0 39 0 0
155 0 155 50 0 c49 0 50 1 50 30 l0 30 -140 0 -140 0 0 -30z"/>
<path d="M2360 245 l0 -185 40 0 40 0 0 75 c0 69 2 75 20 75 15 0 34 -22 68
-75 45 -72 49 -75 85 -75 21 0 37 3 35 8 -1 4 -25 39 -52 79 l-48 72 30 26
c37 31 50 81 30 122 -21 44 -70 63 -165 63 l-83 0 0 -185z m161 115 c27 -15
25 -64 -3 -84 -12 -9 -35 -16 -50 -16 -27 0 -28 2 -28 55 0 55 0 55 31 55 17
0 39 -5 50 -10z"/>
<path d="M2735 258 c-33 -95 -61 -178 -63 -185 -2 -9 9 -13 35 -13 38 0 39 2
51 45 l12 45 74 0 74 0 11 -45 c11 -44 12 -45 51 -45 l39 0 -58 167 c-33 93
-62 176 -66 186 -5 13 -19 17 -54 17 l-46 0 -60 -172z m155 -35 c0 -9 -17 -13
-51 -13 -39 0 -50 3 -46 14 3 7 15 47 28 87 l22 74 24 -75 c12 -41 23 -81 23
-87z"/>
<path d="M3078 245 l3 -185 34 0 35 0 0 63 0 63 62 12 c75 14 105 39 114 97
13 93 -40 135 -171 135 l-80 0 3 -185z m160 113 c16 -16 15 -73 -2 -87 -8 -7
-30 -15 -50 -18 l-36 -6 0 62 0 61 38 0 c21 0 43 -5 50 -12z"/>
</g>
</svg>
