<?xml version="1.0" standalone="no"?>
<!DOCTYPE svg PUBLIC "-//W3C//DTD SVG 20010904//EN"
 "http://www.w3.org/TR/2001/REC-SVG-20010904/DTD/svg10.dtd">
<svg version="1.0" xmlns="http://www.w3.org/2000/svg"
 width="360.000000pt" height="360.000000pt" viewBox="0 0 360.000000 360.000000"
 preserveAspectRatio="xMidYMid meet">

<g transform="translate(0.000000,360.000000) scale(0.100000,-0.100000)"
fill="#000000" stroke="none">
<path d="M1800 3451 c0 -5 9 -19 20 -32 l20 -24 -16 33 c-15 32 -24 40 -24 23z"/>
<path d="M1839 3371 c6 -10 7 -22 3 -26 -4 -5 -2 -5 4 -2 7 4 20 -5 29 -21 10
-15 43 -52 74 -83 31 -30 66 -69 78 -85 63 -83 72 -98 66 -107 -3 -6 -2 -7 4
-4 10 6 70 -81 65 -96 -1 -4 3 -5 9 -1 8 5 10 2 6 -9 -3 -9 1 -18 10 -21 9 -4
13 -14 10 -26 -3 -11 -1 -18 3 -15 9 6 50 -73 50 -96 0 -8 7 -25 16 -37 8 -12
12 -22 8 -22 -3 0 -1 -7 6 -15 6 -8 9 -18 6 -23 -3 -5 1 -9 9 -9 11 0 11 7 -2
41 -49 130 -191 386 -215 386 -4 0 -8 7 -8 15 0 8 -3 15 -8 15 -4 0 -14 11
-22 24 -8 13 -50 61 -93 105 -42 45 -83 92 -89 106 -6 14 -15 25 -20 25 -5 0
-4 -8 1 -19z"/>
<path d="M2013 3125 c0 -8 4 -12 9 -9 5 3 6 10 3 15 -9 13 -12 11 -12 -6z"/>
<path d="M1822 3020 c0 -14 2 -19 5 -12 2 6 2 18 0 25 -3 6 -5 1 -5 -13z"/>
<path d="M1873 3011 c0 -11 5 -18 9 -15 4 3 5 11 1 19 -7 21 -12 19 -10 -4z"/>
<path d="M1822 2925 c0 -16 2 -22 5 -12 2 9 2 23 0 30 -3 6 -5 -1 -5 -18z"/>
<path d="M1823 2850 c0 -25 2 -35 4 -22 2 12 2 32 0 45 -2 12 -4 2 -4 -23z"/>
<path d="M1880 2876 c0 -2 8 -10 18 -17 15 -13 16 -12 3 4 -13 16 -21 21 -21
13z"/>
<path d="M1936 2858 c3 -5 10 -6 15 -3 13 9 11 12 -6 12 -8 0 -12 -4 -9 -9z"/>
<path d="M2076 2812 c-3 -5 1 -9 9 -9 8 0 12 4 9 9 -3 4 -7 8 -9 8 -2 0 -6 -4
-9 -8z"/>
<path d="M1316 2775 c-9 -26 -7 -32 5 -12 6 10 9 21 6 23 -2 3 -7 -2 -11 -11z"/>
<path d="M1281 2679 c-6 -18 -11 -37 -10 -43 0 -6 7 7 15 28 8 22 12 41 10 43
-2 2 -9 -10 -15 -28z"/>
<path d="M2026 2661 c-4 -5 -2 -12 3 -15 5 -4 12 -2 15 3 4 5 2 12 -3 15 -5 4
-12 2 -15 -3z"/>
<path d="M1839 2643 c-13 -16 -12 -17 4 -4 9 7 17 15 17 17 0 8 -8 3 -21 -13z"/>
<path d="M2287 2654 c-3 -3 -19 -8 -34 -9 -41 -4 -57 -9 -65 -20 -5 -6 -8 -5
-8 3 0 7 -4 11 -8 8 -10 -6 -8 -79 3 -95 3 -6 12 -11 18 -10 9 0 8 2 -1 6 -6
2 -10 9 -6 14 3 5 1 9 -4 9 -17 0 0 49 19 55 22 7 42 -2 34 -16 -4 -5 -1 -9 4
-9 6 0 11 12 11 26 0 14 4 22 10 19 5 -3 7 -18 4 -33 -3 -15 -6 -44 -7 -64 -2
-21 -7 -41 -11 -45 -5 -5 -6 13 -3 39 4 36 2 48 -10 52 -8 3 -19 4 -24 0 -5
-3 -9 -1 -9 5 0 5 7 12 15 14 11 4 10 4 -2 3 -18 -2 -19 -7 -11 -76 2 -20 -1
-25 -17 -23 -20 1 -20 1 -1 -13 19 -14 19 -14 -3 -14 -12 0 -19 4 -16 10 3 6
0 10 -7 10 -10 0 -10 2 1 9 7 5 9 11 4 14 -5 4 -9 16 -8 29 1 13 -2 28 -7 35
-5 7 -5 14 2 18 6 3 8 11 4 16 -3 5 -10 6 -16 3 -12 -8 -49 -15 -85 -17 -17
-1 -23 -7 -23 -25 0 -13 4 -20 10 -17 6 3 10 12 10 19 0 7 7 13 15 13 8 0 15
-5 15 -10 0 -5 11 -2 25 7 14 9 24 13 23 9 -1 -4 3 -18 10 -30 8 -15 9 -29 2
-47 -6 -17 -6 -26 0 -26 6 0 10 -7 10 -16 0 -14 -3 -14 -16 -3 -9 7 -14 22
-11 35 3 15 0 21 -9 17 -7 -2 -10 -11 -7 -19 3 -8 1 -14 -5 -14 -5 0 -12 12
-15 26 -3 19 -1 24 10 20 8 -4 11 -1 7 5 -4 7 1 9 15 4 15 -4 19 -3 16 7 -3 8
-14 14 -25 14 -10 0 -16 -4 -14 -8 3 -4 0 -8 -5 -8 -6 0 -11 5 -11 10 0 6 -4
10 -8 10 -11 0 -12 -71 -1 -93 8 -13 14 -15 29 -7 11 6 21 6 25 1 10 -17 -18
-26 -75 -24 l-55 1 50 -7 c28 -5 42 -9 33 -9 -11 -1 -18 -10 -18 -24 0 -18 -2
-20 -9 -8 -6 8 -7 18 -5 22 3 4 0 8 -5 8 -6 0 -11 -11 -11 -25 0 -22 4 -25 33
-25 17 0 27 4 21 8 -6 4 -4 13 9 25 18 18 18 17 12 -20 -4 -30 -3 -34 5 -18 8
16 9 12 6 -20 -3 -22 -2 -32 0 -22 3 9 15 18 27 18 16 1 18 2 5 6 -9 2 -15 10
-12 18 3 7 1 16 -4 19 -17 10 -1 56 22 61 52 10 96 10 96 0 0 -7 -12 -10 -30
-7 -16 2 -38 1 -47 -3 -10 -5 -21 -7 -25 -7 -5 1 -8 -10 -8 -24 0 -14 4 -23
10 -19 6 4 7 11 4 17 -5 7 -1 9 9 5 11 -4 17 -1 17 9 0 13 8 14 40 9 26 -4 40
-3 40 4 0 6 5 11 11 11 5 0 7 -4 4 -10 -3 -5 -1 -10 4 -10 6 0 11 3 12 8 4 40
25 70 39 55 3 -3 -1 -8 -7 -10 -15 -6 -17 -33 -3 -33 6 0 8 -12 6 -26 -3 -16
2 -32 15 -45 19 -19 19 -19 -1 -19 -11 0 -20 -5 -20 -11 0 -5 5 -7 10 -4 6 3
10 -3 10 -15 0 -12 5 -18 10 -15 6 3 10 1 10 -5 0 -7 -7 -10 -15 -6 -10 3 -15
-1 -15 -13 0 -10 -3 -21 -7 -24 -9 -10 -10 -127 -1 -133 4 -3 4 -12 1 -21 -5
-12 -3 -14 7 -8 9 5 11 4 6 -4 -4 -6 -4 -18 1 -24 4 -7 1 -5 -9 5 -12 13 -18
15 -21 6 -3 -7 -4 6 -2 29 2 30 -2 43 -12 47 -22 9 -23 8 -16 -11 6 -17 6 -17
-11 0 -10 10 -21 15 -25 11 -3 -4 0 -9 7 -11 6 -3 12 -13 12 -24 0 -10 6 -19
13 -19 8 0 14 -6 14 -12 0 -7 3 -24 5 -38 3 -14 3 -19 1 -12 -3 6 -9 12 -14
12 -11 0 -11 0 2 -40 l12 -32 14 33 15 34 9 -24 c5 -14 8 -30 5 -37 -3 -7 0
-15 7 -18 7 -4 0 -4 -15 -1 -23 4 -25 2 -20 -17 3 -12 7 -17 10 -10 2 6 8 12
13 12 4 0 6 -7 3 -15 -4 -8 -13 -15 -21 -15 -8 0 -12 -4 -9 -9 4 -5 -2 -8 -11
-7 -9 2 -19 8 -21 14 -4 12 -33 4 -45 -12 -5 -7 -7 -3 -5 9 2 12 11 19 22 18
12 -1 16 4 11 14 -3 9 2 24 11 34 19 21 5 26 -15 7 -10 -11 -11 -10 -6 5 4 10
2 17 -4 17 -11 0 -15 -14 -11 -35 1 -5 -4 -4 -11 3 -16 15 -29 16 -29 1 0 -5
5 -7 10 -4 17 10 11 -7 -7 -22 -17 -14 -17 -14 0 -9 9 3 25 9 35 12 16 5 16 5
0 -9 -10 -8 -18 -23 -19 -33 0 -13 -2 -14 -6 -5 -8 19 -41 51 -53 51 -5 0 -10
-6 -10 -14 0 -8 -8 -17 -17 -19 -15 -4 -15 -5 2 -6 11 -1 26 -5 33 -10 10 -6
9 -10 -7 -14 -12 -3 -19 -2 -16 3 3 4 -4 10 -15 13 -11 3 -20 1 -20 -4 0 -5 5
-9 10 -9 6 0 10 -4 10 -8 0 -5 -7 -9 -15 -9 -8 0 -15 8 -15 17 0 9 -9 16 -22
17 -22 2 -22 1 -5 -12 16 -12 13 -14 -33 -24 -62 -13 -60 -13 -60 0 0 6 6 9
13 6 24 -9 51 10 63 44 8 21 13 27 13 15 1 -11 4 -16 8 -12 11 10 12 36 2 36
-5 0 -5 10 1 24 8 22 5 26 -21 35 -16 5 -29 15 -29 22 0 9 4 8 15 -1 8 -6 24
-9 37 -5 16 4 19 3 10 -3 -11 -8 -11 -10 1 -15 9 -3 17 2 20 14 3 10 12 19 21
19 18 0 20 -8 6 -30 -8 -12 -10 -12 -10 -1 0 8 -2 12 -5 9 -3 -3 -2 -13 1 -22
5 -14 9 -15 15 -4 13 20 12 -8 -1 -33 -7 -13 -7 -19 0 -19 5 0 10 5 10 10 0 7
6 7 19 0 26 -14 31 -13 25 5 -4 8 -10 13 -14 10 -5 -3 -11 -1 -15 5 -3 5 0 10
7 10 9 1 7 5 -4 14 -22 16 -23 26 -3 26 8 0 15 -4 15 -10 0 -5 9 -10 21 -10
11 0 17 -4 14 -10 -3 -5 -2 -10 3 -10 6 0 13 7 16 15 4 13 10 14 26 5 13 -7
20 -7 20 0 0 5 -7 10 -15 10 -8 0 -15 6 -15 13 0 8 -3 7 -10 -3 -5 -8 -12 -11
-16 -7 -4 3 -1 13 6 22 16 19 3 20 -15 1 -8 -7 -11 -16 -8 -20 4 -3 3 -6 -1
-6 -15 0 -34 27 -33 45 1 10 -5 20 -13 22 -10 3 -11 2 -3 -4 18 -13 2 -28 -33
-30 -21 -2 -31 2 -31 12 0 10 8 13 26 10 24 -5 24 -4 -3 6 -15 6 -24 14 -18
18 5 3 12 16 16 29 6 19 4 22 -19 22 -18 0 -25 -4 -22 -12 2 -7 0 -22 -5 -33
-8 -19 -8 -19 -4 1 4 22 -9 53 -18 44 -9 -9 11 -75 21 -73 6 1 9 -6 6 -17 -4
-16 -7 -17 -19 -5 -8 7 -14 20 -15 27 0 7 -5 2 -10 -11 -12 -31 -3 -57 21 -64
11 -3 20 -11 20 -19 0 -8 -3 -9 -8 -2 -18 26 -109 35 -123 12 -4 -5 -9 -3 -12
6 -4 10 -12 13 -23 9 -13 -5 -16 -3 -11 10 3 9 2 19 -2 21 -16 10 -6 -34 13
-55 15 -18 15 -21 3 -16 -9 3 -19 2 -22 -3 -4 -6 -2 -10 4 -10 5 0 16 -3 25
-6 9 -3 16 -1 16 6 0 18 27 40 50 40 12 0 18 -4 15 -10 -3 -5 1 -10 10 -10 9
0 13 4 10 10 -3 6 1 7 10 3 13 -5 14 -7 3 -14 -7 -5 -19 -9 -26 -9 -19 0 -48
-30 -30 -30 10 0 9 -3 -2 -10 -8 -5 -19 -10 -25 -10 -5 0 -4 4 3 9 11 7 11 9
-1 14 -22 8 -15 -23 8 -35 13 -8 16 -7 11 1 -4 6 -2 11 3 11 6 0 11 -7 11 -15
0 -8 -6 -15 -13 -15 -15 0 -57 36 -57 49 0 5 -9 11 -20 14 -11 3 -20 1 -20 -4
0 -5 7 -9 15 -9 8 0 15 -5 15 -10 0 -6 -6 -9 -12 -8 -19 4 -11 -44 9 -59 9 -7
13 -16 10 -20 -4 -3 -7 -3 -7 1 0 4 -9 2 -20 -4 -14 -7 -20 -7 -20 0 0 5 5 10
10 10 6 0 10 5 10 11 0 5 -5 7 -11 3 -7 -4 -10 -1 -7 7 3 8 1 22 -4 32 -6 11
-5 17 3 17 8 0 8 4 -1 14 -9 12 -7 18 9 32 15 13 18 21 10 31 -6 7 -16 10 -23
6 -8 -5 -8 -3 1 8 7 9 10 52 9 119 -2 93 0 107 17 123 18 15 16 21 -4 19 -4
-1 -9 8 -12 18 -3 11 -1 18 4 14 5 -3 9 0 9 5 0 6 -8 11 -17 11 -15 0 -15 2
-4 9 8 5 11 16 8 24 -3 9 1 18 9 21 20 8 24 8 23 -1 -7 -42 19 -54 66 -32 15
7 11 8 -18 5 -33 -4 -36 -3 -22 10 9 9 24 13 37 10 13 -3 18 -3 11 0 -7 3 -9
12 -6 20 3 8 0 14 -7 14 -6 0 -8 -5 -4 -11 5 -9 -1 -10 -22 -4 -36 9 -44 9
-69 0 -19 -8 -18 -7 2 11 15 14 19 24 12 35 -6 10 -9 10 -9 2 0 -7 -5 -13 -12
-13 -6 0 -4 7 5 18 24 26 21 44 -5 40 -13 -2 -22 -9 -21 -16 2 -6 3 -89 4
-184 1 -111 6 -178 13 -187 8 -11 8 -13 -1 -8 -8 5 -11 -24 -10 -111 0 -65 -3
-124 -8 -132 -5 -9 -4 -11 3 -6 7 4 12 1 12 -8 0 -8 -4 -16 -9 -18 -5 -1 -11
-58 -13 -125 -2 -79 0 -119 7 -116 6 3 4 0 -2 -8 -13 -14 -18 -121 -6 -132 3
-4 8 -29 9 -56 1 -27 10 -63 18 -79 9 -17 16 -38 16 -47 0 -8 7 -15 15 -15 8
0 14 3 14 8 -1 4 -1 14 0 22 1 13 2 13 11 0 5 -9 5 -19 -2 -27 -6 -8 -8 -16
-5 -19 7 -8 87 54 87 66 0 15 -18 21 -24 8 -3 -7 -4 -2 -3 12 1 14 8 25 17 25
26 1 41 16 35 36 -4 10 -2 19 3 19 14 0 11 -33 -5 -52 -8 -9 -22 -14 -31 -11
-15 5 -14 3 1 -13 18 -19 20 -17 92 60 72 78 73 80 58 105 -12 21 -12 23 0 9
17 -22 31 -23 24 -4 -4 9 -1 13 6 10 18 -7 48 48 37 66 -9 14 -14 7 -11 -13 1
-5 -3 -6 -9 -2 -16 10 -12 18 18 40 19 13 23 14 14 3 -8 -10 -9 -19 -3 -22 15
-10 41 50 28 63 -8 8 -7 15 2 24 10 8 12 8 7 0 -3 -6 -2 -14 2 -17 12 -7 34
42 26 57 -4 7 -4 9 1 5 9 -9 48 70 40 82 -3 5 -1 10 5 12 16 5 61 195 67 283
11 163 -3 392 -27 420 -5 7 -8 14 -5 16 2 3 -4 31 -13 64 -17 55 -30 73 -45
59z m8 -69 c1 -19 -3 -39 -9 -44 -8 -7 -10 5 -7 40 3 56 14 58 16 4z m-61 -30
c-4 -8 -7 -15 -9 -15 -2 0 -5 7 -9 15 -3 9 0 15 9 15 9 0 12 -6 9 -15z m-145
-70 c0 -5 -4 -3 -9 5 -5 8 -9 22 -9 30 0 16 17 -16 18 -35z m141 10 c0 -8 -4
-15 -10 -15 -5 0 -7 7 -4 15 4 8 8 15 10 15 2 0 4 -7 4 -15z m-380 -5 c0 -5
-2 -10 -4 -10 -3 0 -8 5 -11 10 -3 6 -1 10 4 10 6 0 11 -4 11 -10z m495 -308
c-3 -12 0 -32 7 -45 12 -23 20 -53 11 -44 -2 3 -5 9 -5 14 0 4 -5 14 -10 21
-6 7 -12 43 -13 80 -2 55 -1 61 6 32 5 -19 6 -45 4 -58z m-251 -27 c-4 -8 -8
-15 -10 -15 -2 0 -4 7 -4 15 0 8 4 15 10 15 5 0 7 -7 4 -15z m-54 -190 c0 -5
-5 -3 -10 5 -5 8 -10 10 -10 5 0 -6 -10 -11 -22 -12 -13 0 -17 1 -9 4 11 5 11
7 0 15 -10 6 -7 7 9 3 15 -4 22 -2 22 7 0 10 3 9 10 -2 5 -8 10 -19 10 -25z
m-126 -55 c-3 -2 -9 2 -14 10 -9 13 -10 13 -10 0 0 -13 -1 -13 -10 0 -13 21
11 33 26 12 7 -9 10 -19 8 -22z m116 25 c0 -8 -4 -15 -10 -15 -5 0 -7 7 -4 15
4 8 8 15 10 15 2 0 4 -7 4 -15z m-80 -40 c0 -8 -4 -15 -10 -15 -5 0 -10 7 -10
15 0 8 5 15 10 15 6 0 10 -7 10 -15z m333 -126 c-8 -8 -13 -7 -18 2 -5 8 -4
10 3 5 7 -4 12 -2 12 5 0 7 3 9 7 6 4 -4 2 -12 -4 -18z m-446 -51 c-3 -7 -5
-2 -5 12 0 14 2 19 5 13 2 -7 2 -19 0 -25z m443 28 c0 -2 -7 -6 -15 -10 -8 -3
-15 -1 -15 4 0 6 7 10 15 10 8 0 15 -2 15 -4z m-96 -74 c3 -5 -1 -9 -9 -9 -8
0 -12 4 -9 9 3 4 7 8 9 8 2 0 6 -4 9 -8z m-76 -197 c-3 -3 -9 2 -12 12 -6 14
-5 15 5 6 7 -7 10 -15 7 -18z m-38 -46 c0 -4 -5 -11 -10 -14 -6 -4 -8 -10 -6
-14 3 -4 -1 -8 -9 -8 -8 0 -17 9 -21 19 -3 10 -10 15 -16 12 -6 -4 -9 -3 -5 2
7 12 67 15 67 3z m-190 -119 c0 -5 -2 -10 -4 -10 -3 0 -8 5 -11 10 -3 6 -1 10
4 10 6 0 11 -4 11 -10z m65 -10 c3 -6 -1 -7 -9 -4 -18 7 -21 14 -7 14 6 0 13
-4 16 -10z"/>
<path d="M2036 1418 c3 -5 10 -6 15 -3 13 9 11 12 -6 12 -8 0 -12 -4 -9 -9z"/>
<path d="M1261 2594 c0 -11 3 -14 6 -6 3 7 2 16 -1 19 -3 4 -6 -2 -5 -13z"/>
<path d="M2002 2601 c-7 -4 -26 -7 -42 -6 -17 1 -30 -2 -30 -7 0 -5 -4 -7 -9
-3 -5 3 -13 0 -16 -6 -5 -7 0 -9 12 -7 18 3 23 -1 23 -17 0 -2 -11 0 -24 5
-13 5 -26 6 -29 3 -8 -7 3 -33 15 -33 5 0 6 5 3 10 -3 6 -1 10 4 10 19 0 12
-30 -6 -31 -17 0 -17 -1 -1 -7 13 -5 15 -11 8 -22 -7 -10 -10 -11 -10 -2 0 17
-17 15 -24 -4 -5 -12 0 -15 22 -12 21 2 27 8 26 26 -1 17 4 22 22 22 19 0 23
-4 20 -22 -2 -14 -10 -22 -20 -22 -9 1 -16 -2 -16 -7 0 -14 48 -11 53 4 3 6 6
7 6 2 1 -16 71 -5 71 11 0 7 -5 16 -10 19 -7 4 -7 12 0 25 13 23 13 30 0 30
-16 0 -23 -49 -10 -65 10 -12 9 -15 -9 -15 -16 0 -21 6 -21 24 0 14 5 28 10
31 6 3 10 11 10 16 0 6 -4 8 -8 5 -5 -3 -6 8 -4 25 5 31 4 33 -16 20z m8 -15
c0 -3 -4 -8 -10 -11 -5 -3 -10 -1 -10 4 0 6 5 11 10 11 6 0 10 -2 10 -4z m-32
-18 c-2 -7 2 -12 8 -11 6 1 11 -4 11 -11 0 -7 -9 -13 -19 -12 -10 1 -18 4 -18
9 0 4 0 14 0 22 0 8 5 15 10 15 6 0 9 -6 8 -12z m22 -57 c0 -6 -4 -12 -8 -15
-5 -3 -9 1 -9 9 0 8 4 15 9 15 4 0 8 -4 8 -9z"/>
<path d="M1865 2580 c-3 -5 -12 -7 -20 -3 -8 3 -16 0 -16 -6 -4 -37 -2 -45 11
-48 13 -4 13 -3 0 6 -11 8 -12 11 -2 11 7 0 10 5 7 10 -3 6 -1 10 4 10 6 0 11
-9 11 -20 0 -11 4 -20 9 -20 5 0 7 8 4 19 -3 10 0 22 6 25 6 4 11 11 11 17 0
12 -17 12 -25 -1z"/>
<path d="M1247 2541 c-4 -18 -7 -43 -6 -55 1 -11 5 -1 10 24 5 25 7 49 6 55
-2 5 -7 -5 -10 -24z"/>
<path d="M2172 2524 c10 -10 20 -16 22 -13 3 3 -5 11 -17 18 -21 13 -21 12 -5
-5z"/>
<path d="M1935 2501 c-6 -11 13 -26 22 -17 4 3 0 6 -8 6 -11 0 -11 2 1 10 9 6
10 10 3 10 -6 0 -14 -4 -18 -9z"/>
<path d="M1232 2430 c0 -19 2 -27 5 -17 2 9 2 25 0 35 -3 9 -5 1 -5 -18z"/>
<path d="M1886 2446 c6 -16 44 -29 44 -15 0 5 11 9 25 9 18 0 23 -4 19 -15 -4
-8 -1 -15 5 -15 6 0 11 7 11 16 0 8 4 13 9 10 5 -3 7 -15 4 -26 -3 -11 -9 -17
-14 -14 -5 3 -9 0 -9 -5 0 -6 6 -11 13 -11 23 0 -17 -19 -55 -25 -21 -4 -38
-12 -38 -18 0 -8 -3 -7 -9 1 -7 11 -9 11 -14 -2 -4 -9 -3 -16 1 -17 86 -9 111
-8 106 6 -4 8 -10 15 -16 15 -5 0 -6 -4 -3 -10 3 -5 1 -10 -4 -10 -24 0 -9 26
20 37 17 7 28 17 24 22 -3 6 -1 11 4 11 6 0 11 11 11 25 0 26 -8 30 -77 38
-18 2 -30 0 -27 -5 3 -4 0 -8 -5 -8 -6 0 -11 5 -11 10 0 6 -4 10 -10 10 -5 0
-7 -6 -4 -14z"/>
<path d="M2190 2410 c0 -16 -4 -30 -10 -30 -5 0 -7 7 -4 15 7 17 -11 21 -22 4
-3 -6 -1 -15 6 -19 15 -9 5 -30 -14 -30 -7 0 -19 -11 -26 -25 -18 -34 -27 -32
-22 5 3 19 0 30 -7 30 -7 0 -9 5 -6 10 3 6 1 10 -5 10 -10 0 -27 -56 -22 -72
1 -5 -3 -8 -9 -8 -6 0 -9 9 -6 20 3 13 0 20 -10 20 -10 0 -13 7 -8 23 l6 22
-14 -23 c-7 -12 -17 -19 -21 -15 -4 4 -5 -9 -1 -29 5 -26 4 -38 -4 -38 -6 0
-11 -6 -11 -14 0 -10 10 -14 31 -14 16 1 25 4 19 8 -6 3 -12 16 -15 28 -2 12
-7 27 -10 32 -3 6 -2 10 3 10 11 0 26 -30 23 -47 -1 -6 4 -15 10 -19 9 -5 10
-2 6 9 -6 17 7 24 16 10 2 -5 2 -3 1 4 -2 7 2 15 7 19 7 4 9 -3 7 -16 -2 -14
-17 -30 -38 -41 l-35 -19 33 0 c24 0 31 4 26 13 -5 8 -2 7 9 -2 16 -12 20 -11
37 6 18 20 18 21 -3 32 -21 11 -21 11 3 5 15 -3 20 -2 13 3 -8 6 -9 14 -3 23
8 13 10 12 11 -2 1 -10 2 -26 3 -35 1 -10 5 -24 9 -30 5 -7 4 -13 -2 -13 -5 0
-12 6 -15 13 -3 6 -5 1 -3 -13 3 -22 -1 -26 -22 -28 -20 -1 -23 0 -11 8 13 8
12 10 -2 10 -10 0 -18 -7 -18 -16 0 -11 8 -15 28 -12 21 2 26 -1 24 -14 -2
-10 2 -18 8 -18 5 0 10 -7 10 -15 0 -18 11 -19 29 -2 11 10 13 9 8 -5 -4 -10
-2 -18 4 -18 6 0 6 -7 -1 -19 -7 -13 -7 -22 0 -26 9 -6 14 1 11 18 0 4 18 8
42 8 23 1 33 4 22 6 -11 3 -23 10 -27 17 -5 7 -8 7 -8 -3 0 -9 -9 -4 -23 13
-18 20 -25 24 -35 14 -9 -9 -12 -9 -12 0 0 7 5 12 11 12 6 0 9 9 6 20 -3 11
-2 18 3 15 10 -6 35 24 26 32 -4 4 -11 2 -15 -6 -7 -10 -9 -10 -14 1 -7 19 28
21 43 2 7 -7 16 -11 21 -8 5 3 6 -2 3 -10 -3 -9 -2 -16 2 -17 51 -7 75 -6 63
2 -9 6 -10 12 -4 17 13 9 16 42 4 42 -5 0 -9 -6 -9 -12 0 -9 -4 -8 -10 2 -8
12 -10 8 -8 -14 2 -16 -2 -31 -9 -33 -7 -3 -13 0 -13 7 0 6 5 8 10 5 6 -3 10
-1 10 4 0 6 -5 11 -12 11 -6 0 -8 3 -5 7 4 3 2 12 -4 20 -9 10 -5 13 19 13 29
0 30 1 22 30 -5 18 -5 30 1 30 5 0 9 -4 9 -10 0 -5 5 -10 11 -10 5 0 7 5 4 10
-3 6 -1 10 4 10 6 0 11 5 11 11 0 5 -4 7 -10 4 -9 -6 -15 8 -11 29 1 5 -4 4
-12 -3 -8 -6 -19 -11 -23 -10 -21 3 -35 -2 -29 -11 3 -5 1 -10 -6 -10 -7 0 -9
-3 -6 -6 4 -4 13 -2 20 4 10 9 14 9 15 -1 0 -6 3 -22 6 -34 2 -13 1 -23 -5
-23 -5 0 -9 8 -9 19 0 20 -36 36 -46 20 -3 -5 3 -9 14 -9 22 0 25 -20 4 -39
-12 -12 -13 -11 -8 10 l6 24 -11 -22 c-7 -13 -16 -23 -21 -23 -5 0 -4 9 2 20
8 15 8 20 -1 20 -7 0 -2 11 10 24 l23 24 -21 11 c-14 8 -21 8 -21 1 0 -5 5
-10 11 -10 6 0 3 -7 -6 -16 -8 -9 -13 -24 -11 -33 3 -9 1 -23 -5 -31 -9 -12
-10 -11 -6 8 3 14 0 22 -8 22 -18 0 -26 48 -8 54 10 4 12 -1 7 -21 -5 -18 -4
-24 5 -19 6 4 11 21 11 38 0 28 2 30 28 24 24 -6 25 -5 9 8 -17 13 -16 14 2
19 11 3 20 2 19 -2 -2 -17 3 -31 11 -31 5 0 8 16 8 35 -1 40 -3 41 -25 19 -14
-15 -16 -15 -24 5 -11 30 -18 26 -18 -9z m-104 -75 c1 -7 -4 -16 -10 -18 -9
-4 -11 3 -8 19 5 25 14 25 18 -1z m18 -80 c-4 -8 -8 -15 -10 -15 -2 0 -4 7 -4
15 0 8 4 15 10 15 5 0 7 -7 4 -15z m56 -79 c0 -11 -19 -15 -25 -6 -3 5 1 10 9
10 9 0 16 -2 16 -4z"/>
<path d="M2268 2407 c-5 -28 0 -47 13 -47 6 0 7 5 4 10 -5 9 6 14 26 12 3 -1
6 6 6 14 0 8 -4 14 -9 14 -4 0 -8 -6 -8 -12 0 -9 -3 -8 -9 2 -6 8 -7 18 -5 22
3 4 1 8 -4 8 -5 0 -12 -10 -14 -23z"/>
<path d="M1871 2374 c0 -11 3 -14 6 -6 3 7 2 16 -1 19 -3 4 -6 -2 -5 -13z"/>
<path d="M1224 2245 c0 -77 2 -107 3 -67 2 40 2 103 0 140 -2 37 -3 4 -3 -73z"/>
<path d="M2040 2364 c0 -8 5 -12 10 -9 6 3 10 10 10 16 0 5 -4 9 -10 9 -5 0
-10 -7 -10 -16z"/>
<path d="M1904 2295 c-9 -21 -2 -26 13 -10 8 9 9 16 3 20 -6 3 -13 -1 -16 -10z"/>
<path d="M1932 2285 c-7 -8 -9 -15 -5 -15 4 0 1 -5 -7 -10 -12 -7 -12 -12 -2
-22 9 -9 12 -9 12 0 0 10 3 10 14 0 8 -7 12 -16 9 -20 -2 -5 0 -8 5 -8 6 0 12
7 16 15 3 10 -1 15 -12 15 -10 0 -13 3 -7 8 14 10 17 32 4 32 -5 0 -7 5 -4 10
9 15 -8 11 -23 -5z"/>
<path d="M1875 2269 c-4 -6 -1 -15 6 -20 12 -7 11 -9 -1 -9 -22 0 -22 -80 0
-80 9 0 11 -3 5 -8 -14 -10 -18 -42 -5 -42 11 0 12 4 15 63 2 30 0 35 -11 26
-18 -15 -18 -2 0 16 12 12 15 12 20 0 3 -8 3 -22 0 -30 -4 -8 -1 -15 5 -15 6
0 11 5 11 10 0 6 7 10 15 10 18 0 19 9 4 30 -9 13 -10 12 -5 -2 11 -34 -12
-18 -32 23 -13 25 -23 36 -27 28z"/>
<path d="M1986 2232 c-3 -6 -5 -16 -3 -24 2 -7 2 -10 0 -5 -3 4 -9 4 -15 1 -6
-4 -6 -9 3 -14 10 -7 9 -14 -5 -34 -9 -14 -12 -26 -7 -26 5 0 11 6 14 13 3 9
9 9 25 0 22 -13 39 -2 27 17 -10 16 4 48 23 53 13 4 11 5 -5 6 -20 1 -41 -30
-35 -51 1 -5 -5 -8 -13 -8 -14 0 -14 3 -1 28 14 27 7 67 -8 44z"/>
<path d="M2200 2202 c0 -5 3 -12 8 -16 4 -4 7 -11 7 -14 0 -4 8 -18 18 -32 22
-31 22 -18 0 32 -15 34 -33 51 -33 30z"/>
<path d="M2180 2180 c0 -6 10 -21 21 -33 12 -12 19 -15 15 -7 -3 8 -9 23 -12
33 -7 18 -24 24 -24 7z"/>
<path d="M1918 2162 c-10 -11 -8 -13 12 -10 13 1 25 8 27 14 5 16 -25 13 -39
-4z"/>
<path d="M1900 2124 c0 -9 -9 -18 -20 -21 -11 -3 -20 -10 -20 -15 0 -5 4 -7 9
-4 5 3 20 -3 34 -14 31 -25 47 -25 47 -2 0 13 -2 14 -9 3 -5 -8 -14 -10 -22
-6 -9 6 -8 10 7 15 21 8 47 -7 38 -21 -3 -5 4 -9 15 -9 14 0 21 6 21 19 0 11
2 25 5 33 7 18 -15 48 -22 31 -6 -15 -43 -17 -43 -3 0 6 -9 10 -20 10 -12 0
-20 -7 -20 -16z m33 -26 c-2 -5 -12 -8 -21 -7 -10 0 -12 3 -5 5 7 3 9 13 6 22
-6 14 -5 15 9 2 9 -8 14 -18 11 -22z m58 2 c-7 -3 -9 -15 -6 -26 6 -18 6 -18
-6 1 -7 11 -17 23 -22 26 -5 4 3 7 18 7 15 0 22 -4 16 -8z"/>
<path d="M2108 2123 c7 -3 16 -2 19 1 4 3 -2 6 -13 5 -11 0 -14 -3 -6 -6z"/>
<path d="M1232 2070 c0 -19 2 -27 5 -17 2 9 2 25 0 35 -3 9 -5 1 -5 -18z"/>
<path d="M2246 2077 c3 -10 9 -15 12 -12 3 3 0 11 -7 18 -10 9 -11 8 -5 -6z"/>
<path d="M1242 2005 c0 -16 2 -22 5 -12 2 9 2 23 0 30 -3 6 -5 -1 -5 -18z"/>
<path d="M2083 2012 c1 -18 37 -29 37 -11 0 6 -5 7 -12 3 -8 -5 -9 -2 -5 9 4
11 1 17 -8 17 -7 0 -13 -8 -12 -18z"/>
<path d="M2310 2021 c0 -6 5 -13 10 -16 6 -3 10 1 10 9 0 9 -4 16 -10 16 -5 0
-10 -4 -10 -9z"/>
<path d="M1955 2010 c3 -5 -1 -10 -9 -10 -9 0 -16 -4 -16 -10 0 -14 13 -13 28
2 15 15 15 28 1 28 -5 0 -7 -4 -4 -10z"/>
<path d="M2265 1991 c-3 -5 0 -21 7 -36 10 -21 13 -23 20 -11 5 9 4 24 -2 36
-12 22 -16 24 -25 11z m25 -36 c0 -5 -5 -3 -10 5 -5 8 -10 20 -10 25 0 6 5 3
10 -5 5 -8 10 -19 10 -25z"/>
<path d="M2089 1971 c11 -7 11 -9 0 -13 -10 -3 -10 -6 -1 -12 7 -4 12 -2 12 3
0 6 8 11 18 11 14 0 15 2 2 10 -8 5 -22 10 -30 10 -12 0 -13 -2 -1 -9z"/>
<path d="M1266 1910 c3 -14 11 -32 16 -40 6 -10 7 -7 2 10 -3 14 -11 32 -16
40 -6 10 -7 7 -2 -10z"/>
<path d="M1310 1781 c0 -6 4 -13 10 -16 6 -3 7 1 4 9 -7 18 -14 21 -14 7z"/>
<path d="M1346 1707 c3 -10 9 -15 12 -12 3 3 0 11 -7 18 -10 9 -11 8 -5 -6z"/>
<path d="M1370 1663 c0 -6 9 -21 21 -34 l20 -24 -17 30 c-24 39 -24 40 -24 28z"/>
<path d="M1461 1518 c59 -77 62 -75 9 5 -14 20 -29 37 -33 37 -5 0 6 -19 24
-42z"/>
<path d="M1548 1414 c23 -32 142 -152 142 -143 0 3 -37 43 -82 89 -45 45 -72
70 -60 54z"/>
<path d="M2470 795 c0 -9 9 -15 25 -15 31 0 41 3 38 12 -2 4 4 5 13 1 14 -5
14 -7 1 -14 -11 -7 -13 -17 -7 -42 4 -19 7 -53 6 -76 0 -22 4 -43 9 -45 6 -3
4 -5 -2 -5 -10 -1 -13 -35 -13 -137 l0 -135 -30 -10 c-59 -21 -28 -29 108 -29
141 0 200 9 227 36 8 9 15 13 15 9 0 -3 9 -1 20 5 11 6 17 16 14 22 -4 6 -3 8
4 5 12 -8 65 51 56 64 -3 5 -1 9 5 9 19 0 34 109 22 168 -12 62 -47 125 -63
116 -6 -4 -8 -2 -4 4 7 12 -46 47 -89 58 -27 7 -29 6 -16 -10 8 -9 12 -19 9
-21 -3 -3 -11 6 -18 20 l-13 25 -159 0 c-134 0 -158 -2 -158 -15z m314 -27
c-2 -4 4 -9 15 -13 31 -9 89 -80 100 -122 6 -21 11 -61 11 -88 0 -28 6 -57 13
-64 10 -10 8 -11 -7 -5 -16 6 -18 4 -14 -14 4 -12 2 -20 -2 -17 -5 3 -12 -5
-16 -17 -8 -26 -79 -99 -88 -91 -3 4 -6 2 -6 -3 0 -14 -134 -1 -153 15 -10 7
-17 24 -17 37 0 13 -3 24 -7 24 -5 0 -6 77 -3 171 3 106 1 174 -5 181 -7 8 -6
9 3 4 6 -4 12 -2 12 4 0 8 26 11 84 8 46 -2 82 -6 80 -10z m90 -6 c3 -5 -1 -9
-9 -9 -8 0 -12 4 -9 9 3 4 7 8 9 8 2 0 6 -4 9 -8z m70 -78 c3 -8 2 -12 -4 -9
-6 3 -10 10 -10 16 0 14 7 11 14 -7z m-367 -256 c-3 -8 -6 -5 -6 6 -1 11 2 17
5 13 3 -3 4 -12 1 -19z"/>
<path d="M3055 800 c-6 -10 4 -16 40 -22 19 -3 20 -12 23 -222 2 -211 2 -218
-18 -223 -11 -3 -18 -9 -15 -13 3 -5 -4 -6 -15 -3 -11 3 -20 0 -20 -6 0 -15
256 -15 301 1 47 16 91 47 83 60 -4 7 -2 8 4 4 14 -8 35 30 28 50 -3 9 -1 12
4 9 16 -10 12 43 -5 76 -9 16 -20 27 -26 24 -5 -4 -8 -3 -7 2 4 10 -10 12 -35
5 -17 -4 -17 -5 0 -26 l18 -21 -24 20 -24 20 13 -25 c8 -14 17 -46 20 -71 6
-43 4 -49 -26 -77 -18 -17 -31 -32 -29 -34 2 -2 -27 -1 -63 2 -83 6 -92 19
-92 143 l0 87 58 0 c31 0 69 -6 84 -14 22 -12 33 -12 53 -3 27 13 35 33 9 23
-10 -4 -13 -2 -8 6 5 8 2 9 -9 5 -11 -4 -17 -1 -17 8 0 7 9 17 21 20 25 8 59
62 59 94 0 13 -8 30 -17 38 -10 8 -12 12 -6 8 8 -4 11 -1 7 9 -3 8 -25 24 -48
36 -36 17 -62 20 -179 20 -80 0 -138 -4 -142 -10z m280 -50 c32 -30 40 -70 21
-113 -8 -20 -13 -37 -11 -39 3 -2 -32 -5 -75 -7 l-80 -2 0 89 c0 49 3 92 8 96
16 17 112 0 137 -24z m-10 -170 c-3 -5 -12 -10 -18 -10 -7 0 -6 4 3 10 19 12
23 12 15 0z"/>
<path d="M182 624 c-30 -7 -56 -15 -59 -17 -3 -3 9 -13 26 -22 l31 -16 0 -115
0 -115 -30 -10 c-49 -17 -24 -29 61 -29 80 0 102 12 54 30 -25 9 -25 11 -25
120 0 107 1 110 26 127 39 25 92 22 115 -6 16 -19 19 -41 19 -127 0 -102 -1
-105 -25 -114 -49 -19 -26 -30 60 -30 88 0 107 10 55 29 l-30 10 0 114 c0 112
0 114 25 125 45 21 91 15 114 -14 18 -23 21 -41 21 -126 0 -96 -1 -99 -25
-108 -49 -19 -26 -30 60 -30 87 0 107 10 56 28 l-29 10 -4 122 -3 122 -33 29
c-41 37 -79 37 -142 3 l-47 -26 -26 26 c-34 33 -78 34 -136 1 -23 -14 -45 -25
-46 -25 -2 0 -5 10 -7 23 -3 22 -4 22 -56 11z"/>
<path d="M905 624 c-79 -43 -113 -106 -101 -186 19 -125 132 -179 253 -121
100 47 113 229 21 297 -37 27 -132 32 -173 10z m104 -29 c55 -28 83 -149 53
-222 -37 -86 -155 -54 -183 51 -35 129 35 221 130 171z"/>
<path d="M1262 625 c-30 -7 -56 -15 -58 -18 -3 -2 10 -13 29 -24 31 -19 34
-24 35 -74 0 -30 -2 -80 -5 -112 -4 -50 -9 -60 -29 -67 -49 -19 -24 -30 67
-30 67 0 90 3 87 12 -3 7 -15 15 -29 18 -23 6 -24 9 -27 115 -3 102 -1 111 19
128 33 27 93 23 118 -9 18 -23 21 -41 21 -126 0 -96 -1 -99 -25 -108 -49 -19
-26 -30 60 -30 67 0 85 3 85 14 0 8 -10 16 -22 18 -21 3 -23 9 -25 63 -6 149
-14 187 -43 217 -37 37 -92 38 -144 3 -20 -14 -39 -25 -41 -25 -3 0 -5 11 -5
25 0 14 -3 25 -7 24 -5 -1 -32 -7 -61 -14z"/>
<path d="M1745 624 c-47 -26 -64 -44 -74 -80 -13 -48 3 -98 42 -129 26 -21 29
-27 17 -35 -55 -33 -56 -35 -26 -65 l28 -28 -41 -34 c-44 -37 -49 -58 -26
-102 31 -62 156 -76 238 -28 56 33 77 62 84 116 8 57 -24 87 -103 96 -87 9
-118 19 -122 38 -4 19 3 22 62 32 26 4 51 18 73 40 29 29 33 40 33 84 0 48 2
51 25 51 19 0 45 24 45 42 0 2 -26 4 -57 4 -32 1 -83 4 -113 8 -42 5 -62 2
-85 -10z m111 -42 c21 -27 18 -116 -5 -136 -27 -25 -79 -17 -103 15 -23 30
-27 102 -7 125 30 36 86 34 115 -4z m51 -318 c29 -18 37 -48 21 -81 -17 -36
-52 -53 -110 -53 -88 0 -140 77 -85 127 12 12 31 23 42 25 33 7 109 -3 132
-18z"/>
<path d="M2128 614 c-84 -48 -111 -151 -63 -244 44 -86 173 -103 255 -34 43
37 60 75 60 136 0 102 -51 159 -147 165 -48 3 -66 -1 -105 -23z m126 -25 c14
-11 33 -33 40 -47 31 -60 26 -161 -10 -197 -45 -44 -121 -19 -155 51 -29 61
-24 152 11 189 29 31 77 33 114 4z"/>
</g>
</svg>
