<?xml version="1.0" standalone="no"?>
<!DOCTYPE svg PUBLIC "-//W3C//DTD SVG 20010904//EN"
 "http://www.w3.org/TR/2001/REC-SVG-20010904/DTD/svg10.dtd">
<svg version="1.0" xmlns="http://www.w3.org/2000/svg"
 width="512.000000pt" height="512.000000pt" viewBox="0 0 512.000000 512.000000"
 preserveAspectRatio="xMidYMid meet">

<g transform="translate(0.000000,512.000000) scale(0.100000,-0.100000)"
fill="#000000" stroke="none">
<path d="M3485 5113 c-87 -7 -255 -36 -342 -58 -88 -22 -96 -22 -195 -9 -141
19 -410 19 -520 -1 -112 -19 -235 -59 -322 -102 l-68 -34 -127 35 c-174 50
-290 74 -439 91 -759 89 -1250 -233 -1367 -895 -23 -132 -31 -381 -16 -510 37
-317 167 -876 292 -1260 95 -289 218 -563 330 -735 77 -118 197 -233 293 -281
70 -34 88 -39 171 -42 111 -5 177 12 264 68 l57 37 40 -34 c98 -84 245 -131
437 -140 137 -6 227 4 326 38 30 11 58 19 63 19 4 0 8 -39 8 -87 0 -137 19
-408 36 -518 20 -126 74 -297 127 -399 104 -202 296 -307 537 -292 130 7 310
54 428 112 164 79 300 234 377 428 68 173 125 508 125 737 0 36 3 87 6 113 l7
46 91 0 c287 0 545 79 742 228 180 136 238 277 170 416 -64 130 -175 160 -435
115 -67 -11 -134 -19 -149 -17 l-29 3 60 105 c248 440 451 997 529 1455 29
175 32 462 5 578 -25 104 -74 197 -150 284 -255 291 -592 461 -996 502 -96 10
-274 12 -366 4z m422 -149 c297 -44 561 -173 761 -374 108 -108 146 -163 175
-255 32 -101 31 -403 -1 -583 -86 -486 -306 -1055 -586 -1519 -47 -78 -86
-144 -86 -147 0 -2 21 -13 48 -23 68 -26 237 -23 420 7 130 22 146 23 185 10
59 -21 86 -71 69 -127 -32 -106 -230 -252 -424 -311 -153 -47 -287 -57 -533
-39 -27 2 -30 -1 -33 -28 -27 -276 -105 -830 -131 -932 -65 -254 -202 -391
-466 -468 -346 -100 -580 -15 -716 259 -77 157 -96 298 -106 804 -3 171 -8
312 -9 312 -2 0 -25 -16 -51 -37 -107 -81 -242 -123 -404 -123 -276 0 -475
110 -438 243 18 67 81 101 257 141 156 35 188 51 258 130 32 37 61 72 62 77 2
5 -12 9 -31 9 -43 0 -176 34 -219 56 l-32 17 -68 -72 c-36 -39 -120 -133 -185
-208 -187 -217 -230 -260 -296 -293 -81 -40 -176 -42 -255 -5 -191 89 -387
418 -555 930 -125 380 -241 867 -283 1185 -19 149 -15 396 11 534 75 417 317
673 715 759 138 30 415 29 594 -1 151 -26 290 -60 416 -103 l91 -30 29 21 c50
35 171 87 255 109 177 47 402 51 600 13 87 -17 92 -17 150 1 232 71 572 97
812 61z"/>
<path d="M3535 4834 c-16 -2 -72 -9 -124 -15 -52 -6 -100 -13 -107 -16 -7 -2
22 -23 64 -45 300 -158 566 -442 721 -768 100 -211 110 -290 70 -568 -26 -182
-27 -303 -4 -502 20 -179 17 -369 -9 -465 -9 -33 -32 -92 -50 -131 -21 -45
-31 -76 -25 -85 4 -7 10 -11 13 -8 21 20 172 293 241 434 220 449 362 917 396
1307 14 160 3 281 -34 362 -31 67 -137 180 -246 261 -146 110 -324 186 -517
219 -89 16 -332 28 -389 20z"/>
<path d="M2477 4770 c-332 -56 -574 -280 -705 -651 -32 -92 -76 -279 -87 -369
-3 -30 -8 -68 -11 -83 l-6 -28 49 24 c141 72 322 114 448 104 134 -10 247 -82
305 -196 48 -95 90 -362 90 -577 0 -230 -22 -331 -125 -574 -52 -123 -115
-293 -115 -311 0 -5 22 -9 48 -9 93 0 189 -69 236 -169 20 -44 21 -66 27 -556
7 -570 19 -717 65 -828 81 -193 205 -277 389 -264 44 3 116 16 160 27 240 63
345 174 394 415 36 179 131 928 131 1036 0 74 18 165 40 209 23 45 84 101 130
120 19 7 37 15 39 16 2 2 -22 37 -53 78 -99 128 -391 698 -450 876 -100 304
-87 488 45 618 78 77 193 112 372 112 138 0 132 -13 62 137 -54 115 -116 212
-212 331 -225 277 -531 456 -873 507 -101 16 -313 18 -393 5z"/>
<path d="M1046 4760 c-310 -49 -518 -212 -611 -478 -45 -128 -56 -199 -62
-392 -7 -239 11 -374 103 -780 183 -801 437 -1382 649 -1486 102 -49 149 -22
333 191 71 83 165 190 210 239 l81 90 -54 58 c-69 75 -127 172 -161 273 -25
71 -28 95 -28 215 -1 74 5 199 12 278 8 98 10 225 6 405 -5 216 -4 283 10 382
50 358 169 651 341 842 l47 53 -27 10 c-46 17 -226 61 -335 81 -121 23 -421
33 -514 19z"/>
<path d="M3799 3640 c-121 -15 -193 -62 -225 -146 -13 -35 -16 -65 -11 -143 9
-172 87 -367 326 -815 l79 -149 22 69 c31 95 37 274 16 456 -21 183 -20 363 4
523 11 72 20 147 20 168 l0 37 -54 0 c-29 0 -66 2 -82 4 -16 2 -59 0 -95 -4z
m82 -70 c30 -16 24 -57 -14 -95 -55 -55 -128 -59 -181 -10 -42 39 -29 79 34
104 33 13 136 14 161 1z"/>
<path d="M1975 3601 c-90 -23 -164 -53 -244 -99 l-63 -37 6 -175 c4 -100 2
-226 -4 -295 -22 -252 -23 -365 -5 -434 60 -231 237 -394 461 -425 l42 -6 36
108 c21 59 62 164 91 233 103 240 131 399 114 639 -11 142 -45 331 -71 387
-25 53 -76 99 -125 112 -56 16 -158 12 -238 -8z m274 -79 c43 -21 56 -42 47
-75 -17 -70 -140 -97 -208 -45 -38 29 -64 78 -54 103 17 45 140 55 215 17z"/>
<path d="M4013 1957 c-62 -23 -92 -76 -93 -163 0 -29 4 -33 44 -43 102 -25
342 -8 481 36 80 24 255 126 242 140 -2 2 -50 -4 -107 -13 -71 -11 -143 -15
-234 -12 -116 4 -139 8 -196 32 -83 35 -98 38 -137 23z"/>
<path d="M2273 1883 c-164 -188 -177 -196 -391 -249 -74 -18 -136 -35 -139
-37 -10 -11 112 -47 195 -58 140 -18 279 12 385 82 57 38 145 132 153 165 18
71 -44 164 -109 164 -32 0 -43 -8 -94 -67z"/>
</g>
</svg>
