<?xml version="1.0" standalone="no"?>
<!DOCTYPE svg PUBLIC "-//W3C//DTD SVG 20010904//EN"
 "http://www.w3.org/TR/2001/REC-SVG-20010904/DTD/svg10.dtd">
<svg version="1.0" xmlns="http://www.w3.org/2000/svg"
 width="370.000000pt" height="369.000000pt" viewBox="0 0 370.000000 369.000000"
 preserveAspectRatio="xMidYMid meet">

<g transform="translate(0.000000,369.000000) scale(0.100000,-0.100000)"
fill="#000000" stroke="none">
<path d="M1569 3675 c-326 -36 -528 -137 -597 -298 -8 -19 -12 -104 -12 -272
l0 -245 445 0 445 0 0 -65 0 -65 -680 0 c-660 0 -682 -1 -742 -21 -303 -102
-454 -458 -419 -989 21 -313 89 -509 226 -645 109 -110 188 -135 428 -135
l177 0 0 263 c0 221 3 273 19 332 48 185 156 300 332 352 46 14 131 17 584 19
581 3 609 5 723 63 126 64 197 160 227 306 13 68 15 149 13 550 l-3 470 -33
67 c-74 151 -248 252 -517 299 -141 25 -453 32 -616 14z m-138 -300 c93 -60
92 -207 -3 -264 -52 -33 -102 -36 -153 -11 -82 40 -113 119 -81 205 36 94 149
127 237 70z"/>
</g>
</svg>
